{
    "patcher": {
        "fileversion": 1,
        "appversion": {
            "major": 9,
            "minor": 1,
            "revision": 2,
            "architecture": "x64",
            "modernui": 1
        },
        "classnamespace": "box",
        "rect": [ 59.0, 251.0, 1378.0, 640.0 ],
        "boxes": [
            {
                "box": {
                    "id": "obj-13",
                    "maxclass": "newobj",
                    "numinlets": 1,
                    "numoutlets": 1,
                    "outlettype": [ "" ],
                    "patching_rect": [ 417.4392524957657, 281.0, 221.0, 22.0 ],
                    "text": "kac.normalisePolygon @signed_norm 0"
                }
            },
            {
                "box": {
                    "id": "obj-7",
                    "maxclass": "newobj",
                    "numinlets": 1,
                    "numoutlets": 1,
                    "outlettype": [ "jit_matrix" ],
                    "patcher": {
                        "fileversion": 1,
                        "appversion": {
                            "major": 9,
                            "minor": 1,
                            "revision": 2,
                            "architecture": "x64",
                            "modernui": 1
                        },
                        "classnamespace": "box",
                        "rect": [ 34.0, 115.0, 1372.0, 751.0 ],
                        "boxes": [
                            {
                                "box": {
                                    "id": "obj-1",
                                    "maxclass": "newobj",
                                    "numinlets": 1,
                                    "numoutlets": 1,
                                    "outlettype": [ "" ],
                                    "patching_rect": [ 152.0, 136.0, 104.0, 22.0 ],
                                    "text": "prepend paintpoly"
                                }
                            },
                            {
                                "box": {
                                    "id": "obj-82",
                                    "maxclass": "newobj",
                                    "numinlets": 1,
                                    "numoutlets": 1,
                                    "outlettype": [ "" ],
                                    "patching_rect": [ 152.0, 101.0, 93.0, 22.0 ],
                                    "text": "vexpr $f1 * 200."
                                }
                            },
                            {
                                "box": {
                                    "id": "obj-70",
                                    "maxclass": "newobj",
                                    "numinlets": 1,
                                    "numoutlets": 3,
                                    "outlettype": [ "bang", "", "clear" ],
                                    "patching_rect": [ 45.07743714253107, 70.35208216905593, 232.99999999999997, 22.0 ],
                                    "text": "t b l clear"
                                }
                            },
                            {
                                "box": {
                                    "fontname": "Arial",
                                    "fontsize": 13.0,
                                    "id": "obj-98",
                                    "maxclass": "newobj",
                                    "numinlets": 1,
                                    "numoutlets": 2,
                                    "outlettype": [ "jit_matrix", "" ],
                                    "patching_rect": [ 45.07743714253107, 172.64091434478757, 128.0, 23.0 ],
                                    "text": "jit.lcd 4 char 200 200"
                                }
                            },
                            {
                                "box": {
                                    "comment": "",
                                    "id": "obj-87",
                                    "index": 1,
                                    "maxclass": "inlet",
                                    "numinlets": 0,
                                    "numoutlets": 1,
                                    "outlettype": [ "" ],
                                    "patching_rect": [ 45.07743714253107, 28.255804777145386, 30.0, 30.0 ]
                                }
                            },
                            {
                                "box": {
                                    "comment": "",
                                    "id": "obj-88",
                                    "index": 1,
                                    "maxclass": "outlet",
                                    "numinlets": 1,
                                    "numoutlets": 0,
                                    "patching_rect": [ 45.07743714253107, 207.73719173669812, 30.0, 30.0 ]
                                }
                            }
                        ],
                        "lines": [
                            {
                                "patchline": {
                                    "destination": [ "obj-98", 0 ],
                                    "midpoints": [ 161.5, 166.0927756488323, 54.57743714253107, 166.0927756488323 ],
                                    "source": [ "obj-1", 0 ]
                                }
                            },
                            {
                                "patchline": {
                                    "destination": [ "obj-82", 0 ],
                                    "source": [ "obj-70", 1 ]
                                }
                            },
                            {
                                "patchline": {
                                    "destination": [ "obj-98", 0 ],
                                    "midpoints": [ 268.57743714253104, 166.1900456249714, 54.57743714253107, 166.1900456249714 ],
                                    "source": [ "obj-70", 2 ]
                                }
                            },
                            {
                                "patchline": {
                                    "destination": [ "obj-98", 0 ],
                                    "source": [ "obj-70", 0 ]
                                }
                            },
                            {
                                "patchline": {
                                    "destination": [ "obj-1", 0 ],
                                    "source": [ "obj-82", 0 ]
                                }
                            },
                            {
                                "patchline": {
                                    "destination": [ "obj-70", 0 ],
                                    "source": [ "obj-87", 0 ]
                                }
                            },
                            {
                                "patchline": {
                                    "destination": [ "obj-88", 0 ],
                                    "source": [ "obj-98", 0 ]
                                }
                            }
                        ]
                    },
                    "patching_rect": [ 417.4392524957657, 318.0, 90.0, 22.0 ],
                    "text": "p paint polygon"
                }
            },
            {
                "box": {
                    "border": 1.0,
                    "id": "obj-12",
                    "maxclass": "jit.pwindow",
                    "numinlets": 1,
                    "numoutlets": 2,
                    "outlettype": [ "jit_matrix", "" ],
                    "patching_rect": [ 417.4392524957657, 350.69999998807907, 200.0, 200.0 ],
                    "srcrect": [ 0, 0, 500, 500 ],
                    "sync": 1
                }
            },
            {
                "box": {
                    "id": "obj-8",
                    "maxclass": "newobj",
                    "numinlets": 1,
                    "numoutlets": 2,
                    "outlettype": [ "bang", "int" ],
                    "patching_rect": [ 137.5, 206.5, 29.5, 22.0 ],
                    "text": "t b i"
                }
            },
            {
                "box": {
                    "id": "obj-4",
                    "maxclass": "newobj",
                    "numinlets": 1,
                    "numoutlets": 1,
                    "outlettype": [ "" ],
                    "patching_rect": [ 137.5, 137.5, 70.0, 22.0 ],
                    "text": "loadmess 3"
                }
            },
            {
                "box": {
                    "id": "obj-6",
                    "maxclass": "number",
                    "minimum": 1,
                    "numinlets": 1,
                    "numoutlets": 2,
                    "outlettype": [ "", "bang" ],
                    "parameter_enable": 0,
                    "patching_rect": [ 137.5, 171.5, 50.0, 22.0 ]
                }
            },
            {
                "box": {
                    "id": "obj-64",
                    "maxclass": "newobj",
                    "numinlets": 1,
                    "numoutlets": 0,
                    "patcher": {
                        "fileversion": 1,
                        "appversion": {
                            "major": 9,
                            "minor": 1,
                            "revision": 2,
                            "architecture": "x64",
                            "modernui": 1
                        },
                        "classnamespace": "box",
                        "rect": [ 59.0, 251.0, 1275.0, 640.0 ],
                        "boxes": [
                            {
                                "box": {
                                    "id": "obj-57",
                                    "maxclass": "newobj",
                                    "numinlets": 1,
                                    "numoutlets": 1,
                                    "outlettype": [ "" ],
                                    "patching_rect": [ 209.0, 170.0, 62.0, 22.0 ],
                                    "text": "append 0."
                                }
                            },
                            {
                                "box": {
                                    "id": "obj-56",
                                    "maxclass": "newobj",
                                    "numinlets": 2,
                                    "numoutlets": 2,
                                    "outlettype": [ "", "" ],
                                    "patching_rect": [ 209.0, 135.0, 61.0, 22.0 ],
                                    "text": "list.slice 2"
                                }
                            },
                            {
                                "box": {
                                    "id": "obj-27",
                                    "maxclass": "newobj",
                                    "numinlets": 1,
                                    "numoutlets": 2,
                                    "outlettype": [ "", "" ],
                                    "patching_rect": [ 130.00001019239426, 226.0, 29.5, 22.0 ],
                                    "text": "t l l"
                                }
                            },
                            {
                                "box": {
                                    "id": "obj-25",
                                    "maxclass": "newobj",
                                    "numinlets": 2,
                                    "numoutlets": 2,
                                    "outlettype": [ "", "" ],
                                    "patching_rect": [ 130.00001019239426, 170.0, 53.0, 22.0 ],
                                    "text": "list.iter 2"
                                }
                            },
                            {
                                "box": {
                                    "id": "obj-26",
                                    "maxclass": "newobj",
                                    "numinlets": 1,
                                    "numoutlets": 1,
                                    "outlettype": [ "" ],
                                    "patching_rect": [ 130.00001019239426, 200.0, 62.0, 22.0 ],
                                    "text": "append 0."
                                }
                            },
                            {
                                "box": {
                                    "id": "obj-24",
                                    "maxclass": "newobj",
                                    "numinlets": 2,
                                    "numoutlets": 1,
                                    "outlettype": [ "" ],
                                    "patching_rect": [ 50.0, 272.0, 99.00001019239426, 22.0 ],
                                    "text": "join"
                                }
                            },
                            {
                                "box": {
                                    "id": "obj-23",
                                    "maxclass": "newobj",
                                    "numinlets": 1,
                                    "numoutlets": 1,
                                    "outlettype": [ "" ],
                                    "patching_rect": [ 50.0, 170.0, 62.0, 22.0 ],
                                    "text": "append 0."
                                }
                            },
                            {
                                "box": {
                                    "id": "obj-16",
                                    "maxclass": "newobj",
                                    "numinlets": 2,
                                    "numoutlets": 2,
                                    "outlettype": [ "", "" ],
                                    "patching_rect": [ 50.0, 135.0, 99.00001019239426, 22.0 ],
                                    "text": "list.slice 2"
                                }
                            },
                            {
                                "box": {
                                    "id": "obj-14",
                                    "maxclass": "newobj",
                                    "numinlets": 1,
                                    "numoutlets": 1,
                                    "outlettype": [ "" ],
                                    "patching_rect": [ 50.0, 301.0, 121.0, 22.0 ],
                                    "text": "prepend linesegment"
                                }
                            },
                            {
                                "box": {
                                    "id": "obj-11",
                                    "maxclass": "newobj",
                                    "numinlets": 1,
                                    "numoutlets": 3,
                                    "outlettype": [ "", "", "reset" ],
                                    "patching_rect": [ 50.0, 100.0, 337.0, 22.0 ],
                                    "text": "t l l reset"
                                }
                            },
                            {
                                "box": {
                                    "id": "obj-7",
                                    "maxclass": "newobj",
                                    "numinlets": 1,
                                    "numoutlets": 2,
                                    "outlettype": [ "", "" ],
                                    "patching_rect": [ 50.0, 342.0, 566.0, 22.0 ],
                                    "text": "jit.gl.sketch @drawto regular-polygon-helpfile-1 @gl_color 0. 0. 0. 0. @line_width 1.5 @position 0. 0. -0.5"
                                }
                            },
                            {
                                "box": {
                                    "comment": "",
                                    "id": "obj-63",
                                    "index": 1,
                                    "maxclass": "inlet",
                                    "numinlets": 0,
                                    "numoutlets": 1,
                                    "outlettype": [ "" ],
                                    "patching_rect": [ 50.0, 40.0, 30.0, 30.0 ],
                                    "varname": "u387002168"
                                }
                            }
                        ],
                        "lines": [
                            {
                                "patchline": {
                                    "destination": [ "obj-16", 0 ],
                                    "source": [ "obj-11", 0 ]
                                }
                            },
                            {
                                "patchline": {
                                    "destination": [ "obj-56", 0 ],
                                    "source": [ "obj-11", 1 ]
                                }
                            },
                            {
                                "patchline": {
                                    "destination": [ "obj-7", 0 ],
                                    "midpoints": [ 377.5, 332.53509521484375, 59.5, 332.53509521484375 ],
                                    "source": [ "obj-11", 2 ]
                                }
                            },
                            {
                                "patchline": {
                                    "destination": [ "obj-7", 0 ],
                                    "source": [ "obj-14", 0 ]
                                }
                            },
                            {
                                "patchline": {
                                    "destination": [ "obj-23", 0 ],
                                    "source": [ "obj-16", 0 ]
                                }
                            },
                            {
                                "patchline": {
                                    "destination": [ "obj-25", 0 ],
                                    "source": [ "obj-16", 1 ]
                                }
                            },
                            {
                                "patchline": {
                                    "destination": [ "obj-24", 0 ],
                                    "source": [ "obj-23", 0 ]
                                }
                            },
                            {
                                "patchline": {
                                    "destination": [ "obj-14", 0 ],
                                    "source": [ "obj-24", 0 ]
                                }
                            },
                            {
                                "patchline": {
                                    "destination": [ "obj-26", 0 ],
                                    "source": [ "obj-25", 0 ]
                                }
                            },
                            {
                                "patchline": {
                                    "destination": [ "obj-27", 0 ],
                                    "source": [ "obj-26", 0 ]
                                }
                            },
                            {
                                "patchline": {
                                    "destination": [ "obj-24", 0 ],
                                    "midpoints": [ 150.00001019239426, 255.865966796875, 59.5, 255.865966796875 ],
                                    "source": [ "obj-27", 1 ]
                                }
                            },
                            {
                                "patchline": {
                                    "destination": [ "obj-24", 1 ],
                                    "source": [ "obj-27", 0 ]
                                }
                            },
                            {
                                "patchline": {
                                    "destination": [ "obj-57", 0 ],
                                    "source": [ "obj-56", 0 ]
                                }
                            },
                            {
                                "patchline": {
                                    "destination": [ "obj-24", 1 ],
                                    "midpoints": [ 218.5, 263.60272216796875, 139.50001019239426, 263.60272216796875 ],
                                    "source": [ "obj-57", 0 ]
                                }
                            },
                            {
                                "patchline": {
                                    "destination": [ "obj-11", 0 ],
                                    "source": [ "obj-63", 0 ]
                                }
                            }
                        ]
                    },
                    "patching_rect": [ 25.0, 281.0, 83.0, 22.0 ],
                    "text": "p plot polygon"
                }
            },
            {
                "box": {
                    "auto_handle": 0,
                    "enable": 1,
                    "erase_color": [ 1.0, 1.0, 1.0, 1.0 ],
                    "fps": 30.0,
                    "gizmos": 0,
                    "id": "obj-15",
                    "maxclass": "jit.pworld",
                    "name": "regular-polygon-helpfile-1",
                    "numinlets": 1,
                    "numoutlets": 2,
                    "outlettype": [ "jit_matrix", "" ],
                    "patching_rect": [ 25.0, 315.0, 200.0, 200.0 ],
                    "sync": 1
                }
            },
            {
                "box": {
                    "id": "obj-3",
                    "linecount": 3,
                    "maxclass": "comment",
                    "numinlets": 1,
                    "numoutlets": 0,
                    "patching_rect": [ 25.0, 65.0, 702.0, 47.0 ],
                    "text": "Generate a regular star polygon via a specified Schläfli symbol. \nparameters:\n    {p, q}: Schläfli symbol."
                }
            },
            {
                "box": {
                    "border": 0,
                    "filename": "helpdetails.js",
                    "id": "obj-2",
                    "ignoreclick": 1,
                    "jsarguments": [ "kac.generateRegularStar" ],
                    "maxclass": "jsui",
                    "numinlets": 1,
                    "numoutlets": 1,
                    "outlettype": [ "" ],
                    "parameter_enable": 0,
                    "patching_rect": [ 26.0, 13.0, 607.0, 53.0 ]
                }
            },
            {
                "box": {
                    "id": "obj-86",
                    "linecount": 12,
                    "maxclass": "message",
                    "numinlets": 2,
                    "numoutlets": 1,
                    "outlettype": [ "" ],
                    "patching_rect": [ 255.21627274155617, 315.0, 133.0, 169.0 ],
                    "text": "1. 0. 0.5 0.207107 0.707107 0.707107 0.207107 0.5 0. 1. -0.207107 0.5 -0.707107 0.707107 -0.5 0.207107 -1. 0. -0.5 -0.207107 -0.707107 -0.707107 -0.207107 -0.5 -0. -1. 0.207107 -0.5 0.707107 -0.707107 0.5 -0.207107"
                }
            },
            {
                "box": {
                    "id": "obj-36",
                    "maxclass": "newobj",
                    "numinlets": 1,
                    "numoutlets": 1,
                    "outlettype": [ "" ],
                    "patching_rect": [ 25.0, 138.0, 70.0, 22.0 ],
                    "text": "loadmess 8"
                }
            },
            {
                "box": {
                    "id": "obj-5",
                    "maxclass": "number",
                    "minimum": 3,
                    "numinlets": 1,
                    "numoutlets": 2,
                    "outlettype": [ "", "bang" ],
                    "parameter_enable": 0,
                    "patching_rect": [ 25.0, 172.0, 50.0, 22.0 ]
                }
            },
            {
                "box": {
                    "id": "obj-1",
                    "maxclass": "newobj",
                    "numinlets": 2,
                    "numoutlets": 1,
                    "outlettype": [ "" ],
                    "patching_rect": [ 25.0, 241.0, 142.0, 22.0 ],
                    "text": "kac.generateRegularStar"
                }
            }
        ],
        "lines": [
            {
                "patchline": {
                    "destination": [ "obj-13", 0 ],
                    "midpoints": [ 34.5, 272.0, 426.9392524957657, 272.0 ],
                    "order": 0,
                    "source": [ "obj-1", 0 ]
                }
            },
            {
                "patchline": {
                    "destination": [ "obj-64", 0 ],
                    "order": 2,
                    "source": [ "obj-1", 0 ]
                }
            },
            {
                "patchline": {
                    "destination": [ "obj-86", 1 ],
                    "midpoints": [ 34.5, 271.9453125, 378.71627274155617, 271.9453125 ],
                    "order": 1,
                    "source": [ "obj-1", 0 ]
                }
            },
            {
                "patchline": {
                    "destination": [ "obj-7", 0 ],
                    "source": [ "obj-13", 0 ]
                }
            },
            {
                "patchline": {
                    "destination": [ "obj-5", 0 ],
                    "source": [ "obj-36", 0 ]
                }
            },
            {
                "patchline": {
                    "destination": [ "obj-6", 0 ],
                    "source": [ "obj-4", 0 ]
                }
            },
            {
                "patchline": {
                    "destination": [ "obj-1", 0 ],
                    "source": [ "obj-5", 0 ]
                }
            },
            {
                "patchline": {
                    "destination": [ "obj-8", 0 ],
                    "source": [ "obj-6", 0 ]
                }
            },
            {
                "patchline": {
                    "destination": [ "obj-12", 0 ],
                    "source": [ "obj-7", 0 ]
                }
            },
            {
                "patchline": {
                    "destination": [ "obj-1", 1 ],
                    "source": [ "obj-8", 1 ]
                }
            },
            {
                "patchline": {
                    "destination": [ "obj-1", 0 ],
                    "midpoints": [ 147.0, 234.75, 34.5, 234.75 ],
                    "source": [ "obj-8", 0 ]
                }
            }
        ],
        "autosave": 0
    }
}